<svg xmlns="http://www.w3.org/2000/svg" version="1.1" xmlns:xlink="http://www.w3.org/1999/xlink" xmlns:svgjs="http://svgjs.dev/svgjs" width="1440" height="565" preserveAspectRatio="none" viewBox="0 0 1440 565">
    <g mask="url(&quot;#SvgjsMask1020&quot;)" fill="none">
        <path d="M1560 565L0 565 L0 482.55Q88.97 499.52, 72 588.49Q71.53 468.02, 192 467.56Q222.84 426.4, 264 457.24Q356.59 429.83, 384 522.42Q435.78 502.2, 456 553.99Q507.85 533.84, 528 585.69Q555.54 541.24, 600 568.78Q641.44 490.22, 720 531.67Q755.19 446.86, 840 482.05Q885.1 407.15, 960 452.25Q1048.49 420.74, 1080 509.23Q1163.88 473.11, 1200 556.99Q1286.22 523.22, 1320 609.44Q1322.83 492.26, 1440 495.09Q1482.83 417.91, 1560 460.74z" fill="rgba(0, 145, 38, 1)"></path>
    </g>
    <defs>
        <mask id="SvgjsMask1020">
            <rect width="1440" height="565" fill="#ffffff"></rect>
        </mask>
    </defs>
</svg>